<?xml version="1.0" encoding="UTF-8" standalone="no"?>
<!-- Created with Inkscape (http://www.inkscape.org/) -->

<svg
   width="69.082443mm"
   height="35.265179mm"
   viewBox="0 0 69.082443 35.265179"
   version="1.1"
   id="svg1"
   xml:space="preserve"
   xmlns="http://www.w3.org/2000/svg"
   xmlns:svg="http://www.w3.org/2000/svg"><defs
     id="defs1"><linearGradient
       id="swatch2"><stop
         style="stop-color:#000000;stop-opacity:1;"
         offset="0"
         id="stop2" /></linearGradient><marker
       style="overflow:visible"
       id="ConcaveTriangle-3"
       refX="0"
       refY="0"
       orient="auto-start-reverse"
       markerWidth="1"
       markerHeight="1"
       viewBox="0 0 1 1"
       preserveAspectRatio="xMidYMid"><path
         transform="scale(0.7)"
         d="M -2,-4 9,0 -2,4 c 2,-2.33 2,-5.66 0,-8 z"
         style="fill:context-stroke;fill-rule:evenodd;stroke:none"
         id="path14-6" /></marker><marker
       style="overflow:visible"
       id="marker16-0"
       refX="0"
       refY="0"
       orient="auto-start-reverse"
       markerWidth="1"
       markerHeight="1"
       viewBox="0 0 1 1"
       preserveAspectRatio="xMidYMid"><path
         transform="scale(0.7)"
         d="M -2,-4 9,0 -2,4 c 2,-2.33 2,-5.66 0,-8 z"
         style="fill:context-stroke;fill-rule:evenodd;stroke:none"
         id="path16-6" /></marker></defs><g
     id="layer1"
     transform="translate(-333.375,103.13567)"><g
       id="g16-1"
       transform="translate(-1.70304,62.62844)"><path
         id="rect2-3-8"
         style="stroke:#000000;stroke-width:0.186328;stroke-linecap:round;paint-order:markers stroke fill"
         d="m 372.56119,-133.61018 h 30.508 c 0.55297,0 0.99814,0.44517 0.99814,0.99814 v 1.02182 c 0,0.55297 -0.44517,0.99814 -0.99814,0.99814 h -30.508 c -0.55297,0 -0.99814,-0.44517 -0.99814,-0.99814 v -1.02182 c 0,-0.55297 0.44517,-0.99814 0.99814,-0.99814 z" /><path
         id="rect2-37-7"
         style="stroke:#ffffff;stroke-width:0.390844;stroke-linecap:round;paint-order:markers stroke fill"
         d="m 387.8152,-140.44824 c 1.47598,0 2.66422,1.18824 2.66422,2.66422 v 3.67232 c 0,1.47598 -1.18824,2.66422 -2.66422,2.66422 -1.47598,0 -2.66423,-1.18824 -2.66423,-2.66422 v -3.67232 c 0,-1.47598 1.18825,-2.66422 2.66423,-2.66422 z" /><path
         id="rect1-8-9"
         style="stroke:#000000;stroke-width:0.130281;stroke-linecap:round;paint-order:markers stroke fill"
         d="m 377.85064,-154.18245 h 19.92912 c 1.77517,0 3.20427,1.42911 3.20427,3.20427 v 10.20215 c 0,1.77517 -1.4291,3.20427 -3.20427,3.20427 h -19.92912 c -1.77517,0 -3.20428,-1.4291 -3.20428,-3.20427 v -10.20215 c 0,-1.77516 1.42911,-3.20427 3.20428,-3.20427 z" /><path
         style="font-size:11.8834px;line-height:1;font-family:Arial;-inkscape-font-specification:Arial;letter-spacing:0px;fill:#ffffff;stroke-width:0.842125;stroke-linecap:round;paint-order:markers stroke fill"
         d="m 379.87164,-145.60445 v -0.97481 l 5.63418,-2.379 v 1.03863 l -4.46788,1.83358 4.46788,1.85098 v 1.03863 z m 6.28985,3.86442 2.46604,-8.7965 h 0.83555 l -2.46024,8.7965 z m 9.58563,-3.86442 -5.63417,2.40801 v -1.03863 l 4.46208,-1.85098 -4.46208,-1.83358 v -1.03863 l 5.63417,2.379 z"
         id="text3-6-2"
         aria-label="&lt;/&gt;" /><path
         id="rect5-2"
         style="stroke:#000000;stroke-width:0.20084;stroke-linecap:round;paint-order:markers stroke fill"
         d="m 362.38195,-165.66367 h 12.38999 v 3.50962 h -12.38999 z" /><path
         style="font-size:6.51955px;line-height:1;font-family:Arial;-inkscape-font-specification:Arial;letter-spacing:0px;fill:#ffffff;stroke-width:0.904857;stroke-linecap:round;paint-order:markers stroke fill"
         d="m 365.23618,-162.44474 v -0.42604 h 0.42603 v 0.42604 z m 1.07652,0 v -2.20709 h 0.33668 v 0.31381 q 0.24315,-0.36369 0.70245,-0.36369 0.1995,0 0.36576,0.0727 0.16834,0.0707 0.25147,0.18704 0.0831,0.11638 0.11638,0.2764 0.0208,0.10392 0.0208,0.36369 v 1.3571 h -0.37408 v -1.34254 q 0,-0.22861 -0.0436,-0.34083 -0.0436,-0.11431 -0.15587,-0.18081 -0.11014,-0.0686 -0.25978,-0.0686 -0.23899,0 -0.41356,0.15171 -0.1725,0.15171 -0.1725,0.57567 v 1.20538 z m 3.87799,-0.71076 0.38655,0.0478 q -0.0914,0.33876 -0.33875,0.5258 -0.24731,0.18704 -0.63178,0.18704 -0.48423,0 -0.76895,-0.29719 -0.28264,-0.29926 -0.28264,-0.83752 0,-0.55698 0.2868,-0.86456 0.28679,-0.30757 0.74401,-0.30757 0.44266,0 0.72323,0.30134 0.28055,0.30134 0.28055,0.84792 0,0.0332 -0.002,0.0998 h -1.64597 q 0.0208,0.36369 0.20575,0.55697 0.18496,0.19327 0.46137,0.19327 0.20574,0 0.35122,-0.10807 0.14548,-0.10806 0.23068,-0.34499 z m -1.22823,-0.60477 h 1.23239 q -0.0249,-0.27848 -0.14132,-0.41773 -0.17873,-0.21613 -0.46345,-0.21613 -0.2577,0 -0.43435,0.17249 -0.17457,0.17249 -0.19327,0.46137 z m 2.90121,0.98093 0.0541,0.33044 q -0.15795,0.0332 -0.28264,0.0332 -0.20367,0 -0.31589,-0.0644 -0.11223,-0.0644 -0.15795,-0.16833 -0.0457,-0.10599 -0.0457,-0.44267 v -1.2698 h -0.27433 v -0.29096 h 0.27433 v -0.54657 l 0.372,-0.22445 v 0.77102 h 0.37616 v 0.29096 h -0.37616 v 1.29058 q 0,0.16003 0.0187,0.20575 0.0208,0.0457 0.0644,0.0727 0.0457,0.027 0.12884,0.027 0.0623,0 0.16419,-0.0146 z"
         id="text7-3"
         aria-label=".net" /><path
         id="rect5-3-5"
         style="stroke:#000000;stroke-width:0.625976;stroke-linecap:round;paint-order:markers stroke fill"
         d="m 336.6882,-158.57164 h 33.06403 v 12.77582 H 336.6882 Z" /><path
         id="rect5-3-7-9"
         style="fill:none;stroke:#000000;stroke-width:0.704384;stroke-linecap:round;paint-order:markers stroke fill"
         d="m 335.43024,-159.70021 h 35.57991 v 15.03293 h -35.57991 z" /><path
         style="font-size:9.41124px;line-height:1;font-family:Arial;-inkscape-font-specification:Arial;letter-spacing:0px;fill:#ffffff;stroke-width:2.00079;stroke-linecap:round;paint-order:markers stroke fill"
         d="m 341.01733,-149.79187 v -0.94204 h 0.94204 v 0.94204 z m 2.15061,-3.32243 q 0,-1.19478 0.24356,-1.92084 0.24815,-0.73066 0.73065,-1.12586 0.48711,-0.3952 1.22236,-0.3952 0.54225,0 0.95124,0.22058 0.40898,0.21598 0.67551,0.62956 0.26653,0.40898 0.41818,1.00178 0.15164,0.5882 0.15164,1.58998 0,1.1856 -0.24355,1.91626 -0.24355,0.72606 -0.73066,1.12585 -0.48251,0.3952 -1.22236,0.3952 -0.97421,0 -1.53024,-0.69849 -0.66633,-0.84094 -0.66633,-2.73882 z m 0.85014,0 q 0,1.65892 0.38601,2.21036 0.3906,0.54684 0.96042,0.54684 0.56982,0 0.95583,-0.55144 0.39061,-0.55144 0.39061,-2.20576 0,-1.66351 -0.39061,-2.21035 -0.38601,-0.54684 -0.96502,-0.54684 -0.56982,0 -0.90987,0.48251 -0.42737,0.61577 -0.42737,2.27468 z m 6.41968,2.58258 0.11948,0.73066 q -0.34925,0.0735 -0.62497,0.0735 -0.45034,0 -0.69849,-0.14245 -0.24815,-0.14246 -0.34924,-0.37222 -0.1011,-0.23436 -0.1011,-0.97881 v -2.80775 h -0.60658 v -0.64334 h 0.60658 v -1.20857 l 0.82256,-0.4963 v 1.70487 h 0.83176 v 0.64334 H 349.606 v 2.8537 q 0,0.35385 0.0414,0.45494 0.046,0.1011 0.14246,0.16084 0.1011,0.0597 0.28491,0.0597 0.13786,0 0.36303,-0.0322 z m 0.57901,-2.58258 q 0,-1.19478 0.24355,-1.92084 0.24815,-0.73066 0.73066,-1.12586 0.48711,-0.3952 1.22236,-0.3952 0.54225,0 0.95123,0.22058 0.40899,0.21598 0.67552,0.62956 0.26653,0.40898 0.41817,1.00178 0.15165,0.5882 0.15165,1.58998 0,1.1856 -0.24355,1.91626 -0.24356,0.72606 -0.73066,1.12585 -0.48251,0.3952 -1.22236,0.3952 -0.97421,0 -1.53025,-0.69849 -0.66632,-0.84094 -0.66632,-2.73882 z m 0.85014,0 q 0,1.65892 0.38601,2.21036 0.3906,0.54684 0.96042,0.54684 0.56982,0 0.95583,-0.55144 0.3906,-0.55144 0.3906,-2.20576 0,-1.66351 -0.3906,-2.21035 -0.38601,-0.54684 -0.96502,-0.54684 -0.56982,0 -0.90988,0.48251 -0.42736,0.61577 -0.42736,2.27468 z m 4.84807,3.32243 v -0.94204 h 0.94205 v 0.94204 z m 2.37579,-5.77633 v -0.96043 h 0.82716 v 0.96043 z m -1.04774,7.66961 0.15624,-0.70309 q 0.24815,0.0643 0.39061,0.0643 0.25274,0 0.37682,-0.17003 0.12407,-0.16543 0.12407,-0.83635 v -5.12839 h 0.82716 v 5.14677 q 0,0.90068 -0.23436,1.25452 -0.2987,0.45954 -0.99259,0.45954 -0.33546,0 -0.64795,-0.0873 z m 3.14321,-0.023 v -6.75054 h 0.75364 v 0.63415 q 0.26653,-0.37222 0.60198,-0.55603 0.33546,-0.18841 0.81338,-0.18841 0.62496,0 1.10288,0.32167 0.47791,0.32168 0.72147,0.90988 0.24355,0.58361 0.24355,1.2821 0,0.74904 -0.27113,1.35102 -0.26653,0.5974 -0.7812,0.91907 -0.51008,0.31708 -1.07531,0.31708 -0.41358,0 -0.74444,-0.17462 -0.32627,-0.17463 -0.53766,-0.44116 v 2.37579 z m 0.74904,-4.28285 q 0,0.94204 0.38141,1.39239 0.38142,0.45034 0.92367,0.45034 0.55144,0 0.94204,-0.46413 0.3952,-0.46872 0.3952,-1.44753 0,-0.93285 -0.38601,-1.39698 -0.38141,-0.46413 -0.91447,-0.46413 -0.52847,0 -0.93745,0.4963 -0.40439,0.4917 -0.40439,1.43374 z"
         id="text7-5-2"
         aria-label=".0t0.jp" /><path
         style="fill:none;fill-opacity:1;stroke:#000000;stroke-width:0.704;stroke-linecap:round;stroke-dasharray:none;stroke-opacity:1;marker-end:url(#ConcaveTriangle-3);paint-order:markers stroke fill"
         d="m 357.3829,-144.52732 v 3.03721 h 13.02657"
         id="path11-8" /><path
         style="fill:none;fill-opacity:1;stroke:#000000;stroke-width:0.459601;stroke-linecap:round;stroke-dasharray:none;stroke-opacity:1;marker-end:url(#marker16-0);paint-order:markers stroke fill"
         d="m 374.79075,-164.1982 5.43289,-0.11586 v 7.35448"
         id="path15-9" /></g></g></svg>
