<?xml version="1.0" encoding="UTF-8" standalone="no"?>
<!-- Created with Inkscape (http://www.inkscape.org/) -->

<svg
   width="173.58638mm"
   height="76.866531mm"
   viewBox="0 0 173.58638 76.866531"
   version="1.1"
   id="svg1"
   inkscape:version="1.4.2 (ebf0e940d0, 2025-05-08)"
   sodipodi:docname="logo.svg"
   inkscape:export-filename="../react/practice/asset/icon/rtriangle.svg"
   inkscape:export-xdpi="96"
   inkscape:export-ydpi="96"
   xml:space="preserve"
   xmlns:inkscape="http://www.inkscape.org/namespaces/inkscape"
   xmlns:sodipodi="http://sodipodi.sourceforge.net/DTD/sodipodi-0.dtd"
   xmlns="http://www.w3.org/2000/svg"
   xmlns:svg="http://www.w3.org/2000/svg"><sodipodi:namedview
     id="namedview1"
     pagecolor="#ffffff"
     bordercolor="#000000"
     borderopacity="0.25"
     inkscape:showpageshadow="2"
     inkscape:pageopacity="0.0"
     inkscape:pagecheckerboard="0"
     inkscape:deskcolor="#d1d1d1"
     inkscape:document-units="mm"
     inkscape:zoom="9.1542637"
     inkscape:cx="1070.3755"
     inkscape:cy="686.83842"
     inkscape:window-width="1920"
     inkscape:window-height="1080"
     inkscape:window-x="0"
     inkscape:window-y="0"
     inkscape:window-maximized="1"
     inkscape:current-layer="layer1"><inkscape:page
       x="0"
       y="0"
       width="173.58638"
       height="76.866531"
       id="page2"
       margin="0"
       bleed="0" /></sodipodi:namedview><defs
     id="defs1"><linearGradient
       id="swatch2"
       inkscape:swatch="solid"><stop
         style="stop-color:#000000;stop-opacity:1;"
         offset="0"
         id="stop2" /></linearGradient></defs><g
     inkscape:label="Layer 1"
     inkscape:groupmode="layer"
     id="layer1"
     transform="translate(-202.6404,-223.33759)"><rect
       style="fill:#000000;fill-opacity:1;stroke:#000000;stroke-width:0.242;stroke-linecap:square;stroke-linejoin:miter;stroke-miterlimit:0;stroke-dasharray:none;stroke-opacity:1;paint-order:markers stroke fill"
       id="rect8"
       width="173.34439"
       height="76.624527"
       x="202.7614"
       y="223.4586"
       ry="3.7248034"
       inkscape:export-filename="../react/nextjs/projectdir/public/asset/icon/icon-pixiv.svg"
       inkscape:export-xdpi="96"
       inkscape:export-ydpi="96" /><g
       style="fill:none"
       id="g1"
       transform="matrix(0.26458333,0,0,0.26458333,223.28778,236.53964)"><path
         d="M 143.672,65.41 C 130.737,54.18 112.72,47.582 91.816,47.582 37.188,47.582 0,89.838 0,89.838 l 10.394,16.671 c 0,0 5.775,0.463 2.772,-9.377 2.656,-4.978 7.854,-11.809 18.017,-19.566 V 188.475 C 26.794,189.748 21.02,192.064 24.946,196 H 55.09 c 3.927,-3.936 -2.31,-6.367 -6.12,-7.525 v -26.164 c 0,0 20.672,8.104 42.847,8.104 19.518,0 37.304,-5.789 50.585,-16.324 13.282,-10.419 21.713,-26.048 21.713,-43.877 -0.116,-17.482 -7.623,-33.574 -20.442,-44.803 z m -15.938,80.114 c -9.124,9.03 -22.406,14.819 -37.766,14.703 -17.093,0 -31.53,-3.358 -41,-7.988 v -83.24 c 10.395,-7.409 27.372,-12.04 41,-11.924 16.631,0 29.681,6.252 38.459,15.86 8.777,9.61 13.628,22.344 13.628,37.163 -0.116,14.356 -5.197,26.28 -14.321,35.426 z m 62.827,-97.826 h -6.121 c -2.772,0 -4.966,2.2 -4.966,4.978 V 166.13 c 0,2.779 2.194,4.978 4.966,4.978 h 6.121 c 2.772,0 4.966,-2.199 4.966,-4.978 V 52.676 c 0,-2.779 -2.194,-4.978 -4.966,-4.978 z m 160.187,0 h -6.121 c -2.772,0 -4.966,2.2 -4.966,4.978 V 166.13 c 0,2.779 2.194,4.978 4.966,4.978 h 6.121 c 2.772,0 4.966,-2.199 4.966,-4.978 V 52.676 c 0,-2.779 -2.194,-4.978 -4.966,-4.978 z m 144.134,0 h -5.659 c -4.504,0 -5.775,0.578 -7.738,4.63 -1.964,4.052 -46.428,92.154 -46.428,92.154 0,0 -44.349,-88.217 -46.428,-92.154 -1.963,-4.052 -3.233,-4.63 -7.737,-4.63 h -5.66 c -4.157,0 -6.467,1.852 -4.042,6.599 2.426,4.746 57.053,112.297 57.053,112.297 1.386,2.779 4.042,4.399 6.93,4.399 2.887,0 5.428,-1.62 6.929,-4.399 0.116,-0.231 54.628,-107.55 57.053,-112.297 2.194,-4.747 -0.116,-6.6 -4.273,-6.6 z M 302.357,166.826 c 2.31,3.01 3.927,4.167 8.431,4.167 h 9.239 c 5.89,0 3.696,-2.662 2.079,-4.746 -4.042,-5.441 -44.349,-56.728 -44.349,-56.728 0,0 41.693,-51.634 45.851,-57.075 1.617,-2.2 3.695,-4.746 -2.079,-4.746 h -9.24 c -4.504,0 -6.121,1.157 -8.43,4.167 -2.31,3.01 -36.265,44.804 -36.265,44.804 0,0 -33.954,-41.794 -36.264,-44.804 -2.31,-3.01 -3.927,-4.167 -8.431,-4.167 h -9.239 c -5.775,0 -3.696,2.662 -2.079,4.746 4.042,5.441 45.85,57.075 45.85,57.075 0,0 -41.462,51.287 -45.619,56.728 -1.617,2.2 -3.696,4.746 2.079,4.746 h 9.239 c 4.504,0 6.121,-1.157 8.431,-4.167 2.31,-3.01 36.033,-44.456 36.033,-44.456 0,0 32.453,41.561 34.763,44.456 z M 187.558,0 c -3.695,0 -6.698,1.273 -9.123,3.705 -2.426,2.43 -3.696,5.44 -3.696,9.146 0,3.704 1.27,6.714 3.696,9.146 2.425,2.43 5.428,3.704 9.123,3.704 3.696,0 6.699,-1.273 9.124,-3.704 2.426,-2.432 3.696,-5.442 3.696,-9.146 0,-3.705 -1.27,-6.715 -3.696,-9.146 C 194.257,1.273 191.139,0 187.558,0 Z m 160.187,0 c -3.695,0 -6.698,1.273 -9.123,3.705 -2.426,2.43 -3.696,5.44 -3.696,9.146 0,3.704 1.27,6.714 3.696,9.146 2.425,2.43 5.428,3.704 9.123,3.704 3.696,0 6.699,-1.273 9.124,-3.704 2.426,-2.432 3.696,-5.442 3.696,-9.146 0,-3.705 -1.27,-6.715 -3.696,-9.146 C 354.444,1.273 351.326,0 347.745,0 Z"
         fill="#ffffff"
         id="path1-5" /></g></g></svg>
