<?xml version="1.0" encoding="UTF-8" standalone="no"?>
<!-- Created with Inkscape (http://www.inkscape.org/) -->

<svg
   width="94.19561mm"
   height="54.277145mm"
   viewBox="0 0 94.19561 54.277145"
   version="1.1"
   id="svg1"
   xmlns="http://www.w3.org/2000/svg"
   xmlns:svg="http://www.w3.org/2000/svg">
  <defs
     id="defs1">
    <linearGradient
       id="swatch2">
      <stop
         style="stop-color:#000000;stop-opacity:1;"
         offset="0"
         id="stop2" />
    </linearGradient>
  </defs>
  <g
     id="layer1"
     transform="translate(-35.329131,-325.24515)">
    <g
       id="g1"
       transform="translate(-48.543784,68.334712)">
      <g
         id="g6-4-3"
         transform="matrix(0.82058629,0,0,0.82058629,70.045786,220.99702)">
        <rect
           style="fill:#000000;stroke:none;stroke-width:0.431;stroke-linecap:round;stroke-linejoin:round;stroke-dasharray:none;paint-order:markers stroke fill"
           id="rect1-0-5"
           width="27.320564"
           height="4.4437065"
           x="21.724787"
           y="55.111992" />
        <path
           style="fill:#000000;stroke:none;stroke-width:0.442227;stroke-linecap:round;stroke-linejoin:round;stroke-dasharray:none;paint-order:markers stroke fill"
           id="path2-5-6"
           d="m 47.03754,56.137172 a 2.2219999,2.2219999 0 0 1 3.061853,-0.680053 2.2219999,2.2219999 0 0 1 0.691569,3.059272 2.2219999,2.2219999 0 0 1 -3.056647,0.703076 2.2219999,2.2219999 0 0 1 -0.714574,-3.05398 l 1.890034,1.168356 z" />
        <path
           style="fill:#000000;stroke:none;stroke-width:0.442227;stroke-linecap:round;stroke-linejoin:round;stroke-dasharray:none;paint-order:markers stroke fill"
           id="path2-3-9-2"
           d="m 19.862928,56.128922 a 2.2219999,2.2219999 0 0 1 3.071853,-0.662017 2.2219999,2.2219999 0 0 1 0.662024,3.071851 2.2219999,2.2219999 0 0 1 -3.07185,0.662031 2.2219999,2.2219999 0 0 1 -0.662037,-3.071849 l 1.866946,1.204905 z" />
      </g>
      <g
         id="g6-6-4-9"
         transform="matrix(0.82058629,0,0,0.82058629,67.865031,225.74497)">
        <rect
           style="fill:#000000;stroke:none;stroke-width:0.431;stroke-linecap:round;stroke-linejoin:round;stroke-dasharray:none;paint-order:markers stroke fill"
           id="rect1-4-6-1"
           width="27.320564"
           height="4.4437065"
           x="21.724787"
           y="55.111992" />
        <path
           style="fill:#000000;stroke:none;stroke-width:0.442227;stroke-linecap:round;stroke-linejoin:round;stroke-dasharray:none;paint-order:markers stroke fill"
           id="path2-33-9-2"
           d="m 47.03754,56.137172 a 2.2219999,2.2219999 0 0 1 3.061853,-0.680053 2.2219999,2.2219999 0 0 1 0.691569,3.059272 2.2219999,2.2219999 0 0 1 -3.056647,0.703076 2.2219999,2.2219999 0 0 1 -0.714574,-3.05398 l 1.890034,1.168356 z" />
        <path
           style="fill:#000000;stroke:none;stroke-width:0.442227;stroke-linecap:round;stroke-linejoin:round;stroke-dasharray:none;paint-order:markers stroke fill"
           id="path2-3-3-2-7"
           d="m 19.862928,56.128922 a 2.2219999,2.2219999 0 0 1 3.071853,-0.662017 2.2219999,2.2219999 0 0 1 0.662024,3.071851 2.2219999,2.2219999 0 0 1 -3.07185,0.662031 2.2219999,2.2219999 0 0 1 -0.662037,-3.071849 l 1.866946,1.204905 z" />
      </g>
      <text
         xml:space="preserve"
         style="font-size:82.196px;line-height:1;font-family:Arial;-inkscape-font-specification:Arial;text-align:start;writing-mode:lr-tb;direction:ltr;text-anchor:start;fill:#000000;stroke:none;stroke-width:0.697373;stroke-linecap:round;stroke-linejoin:round;stroke-dasharray:none;paint-order:markers stroke fill"
         x="87.168449"
         y="310.50024"
         id="text6-2-0"><tspan
           id="tspan6-4-9"
           style="font-style:normal;font-variant:normal;font-weight:normal;font-stretch:normal;font-size:82.196px;font-family:Arial;-inkscape-font-specification:Arial;stroke-width:0.697372"
           x="87.168449"
           y="310.50024">t</tspan></text>
      <text
         xml:space="preserve"
         style="font-size:48.9231px;line-height:1;font-family:Arial;-inkscape-font-specification:Arial;text-align:start;letter-spacing:-3.95181px;writing-mode:lr-tb;direction:ltr;text-anchor:start;fill:#000000;stroke:#000000;stroke-width:0.279639;stroke-linecap:round;stroke-linejoin:round;stroke-dasharray:none;stroke-opacity:1;paint-order:markers stroke fill"
         x="102.45077"
         y="299.01889"
         id="text6-8-7-3"
         transform="scale(1.0164316,0.98383403)"><tspan
           id="tspan6-8-7-6"
           style="font-style:normal;font-variant:normal;font-weight:normal;font-stretch:normal;font-size:48.9231px;font-family:'Noto Serif Display';-inkscape-font-specification:'Noto Serif Display';letter-spacing:-3.95181px;stroke:#000000;stroke-width:0.279639;stroke-dasharray:none;stroke-opacity:1"
           x="102.45077"
           y="299.01889">C<tspan
   style="letter-spacing:-5.83313px;stroke-width:0.279639"
   id="tspan16-0">27</tspan></tspan></text>
      <rect
         style="fill:#ffffff;fill-opacity:1;stroke:none;stroke-width:0.436618;stroke-linecap:round;stroke-linejoin:round;stroke-dasharray:none;stroke-opacity:1;paint-order:markers stroke fill"
         id="rect6-4-6"
         width="21.021595"
         height="1.1208978"
         x="87.830391"
         y="269.84048" />
      <g
         id="g7-8-2"
         style="fill:#ffffff;fill-opacity:1"
         transform="matrix(0.40532846,0,0,0.40532846,87.183257,249.83752)">
        <rect
           style="fill:#ffffff;fill-opacity:1;stroke:none;stroke-width:1.677;stroke-linecap:square;stroke-linejoin:round;stroke-dasharray:none;stroke-opacity:1;paint-order:markers stroke fill"
           id="rect7-1-6"
           width="3.4718792"
           height="2.7911186"
           x="28.183491"
           y="96.59993" />
        <path
           style="fill:#ffffff;fill-opacity:1;stroke:none;stroke-width:1.54052;stroke-linecap:square;stroke-linejoin:round;stroke-dasharray:none;stroke-opacity:1;paint-order:markers stroke fill"
           id="path7-2-1"
           d="m 28.455609,95.636582 a 1.7383043,1.6962894 0 0 1 2.403157,-0.505388 1.7383043,1.6962894 0 0 1 0.517912,2.345072 1.7383043,1.6962894 0 0 1 -2.403155,0.505398 1.7383043,1.6962894 0 0 1 -0.517922,-2.34507 l 1.460541,0.919833 z" />
      </g>
      <g
         id="g7-8-8-8"
         style="fill:#ffffff;fill-opacity:1"
         transform="matrix(0.40532846,0,0,0.40532846,86.537656,236.27279)">
        <rect
           style="fill:#ffffff;fill-opacity:1;stroke:none;stroke-width:1.677;stroke-linecap:square;stroke-linejoin:round;stroke-dasharray:none;stroke-opacity:1;paint-order:markers stroke fill"
           id="rect7-1-7-7"
           width="3.4718792"
           height="2.7911186"
           x="28.183491"
           y="96.59993" />
        <path
           style="fill:#ffffff;fill-opacity:1;stroke:none;stroke-width:1.54052;stroke-linecap:square;stroke-linejoin:round;stroke-dasharray:none;stroke-opacity:1;paint-order:markers stroke fill"
           id="path7-2-9-9"
           d="m 28.455609,95.636582 a 1.7383043,1.6962894 0 0 1 2.403157,-0.505388 1.7383043,1.6962894 0 0 1 0.517912,2.345072 1.7383043,1.6962894 0 0 1 -2.403155,0.505398 1.7383043,1.6962894 0 0 1 -0.517922,-2.34507 l 1.460541,0.919833 z" />
      </g>
      <g
         id="g7-8-1-2"
         style="fill:#ffffff;fill-opacity:1"
         transform="matrix(0.40532846,0,0,0.40532846,82.381116,243.06971)">
        <rect
           style="fill:#ffffff;fill-opacity:1;stroke:none;stroke-width:1.677;stroke-linecap:square;stroke-linejoin:round;stroke-dasharray:none;stroke-opacity:1;paint-order:markers stroke fill"
           id="rect7-1-2-0"
           width="3.4718792"
           height="2.7911186"
           x="28.183491"
           y="96.59993" />
        <path
           style="fill:#ffffff;fill-opacity:1;stroke:none;stroke-width:1.54052;stroke-linecap:square;stroke-linejoin:round;stroke-dasharray:none;stroke-opacity:1;paint-order:markers stroke fill"
           id="path7-2-7-2"
           d="m 28.455609,95.636582 a 1.7383043,1.6962894 0 0 1 2.403157,-0.505388 1.7383043,1.6962894 0 0 1 0.517912,2.345072 1.7383043,1.6962894 0 0 1 -2.403155,0.505398 1.7383043,1.6962894 0 0 1 -0.517922,-2.34507 l 1.460541,0.919833 z" />
      </g>
      <g
         id="g7-3-8-3"
         style="fill:#ffffff;fill-opacity:1"
         transform="matrix(0.40532846,0,0,0.40532846,83.114865,256.57842)">
        <rect
           style="fill:#ffffff;fill-opacity:1;stroke:none;stroke-width:1.677;stroke-linecap:square;stroke-linejoin:round;stroke-dasharray:none;stroke-opacity:1;paint-order:markers stroke fill"
           id="rect7-0-9-7"
           width="3.4718792"
           height="2.7911186"
           x="28.183491"
           y="96.59993" />
        <path
           style="fill:#ffffff;fill-opacity:1;stroke:none;stroke-width:1.54052;stroke-linecap:square;stroke-linejoin:round;stroke-dasharray:none;stroke-opacity:1;paint-order:markers stroke fill"
           id="path7-3-3-5"
           d="m 28.455609,95.636582 a 1.7383043,1.6962894 0 0 1 2.403157,-0.505388 1.7383043,1.6962894 0 0 1 0.517912,2.345072 1.7383043,1.6962894 0 0 1 -2.403155,0.505398 1.7383043,1.6962894 0 0 1 -0.517922,-2.34507 l 1.460541,0.919833 z" />
      </g>
      <path
         style="fill:none;fill-opacity:1;stroke:#ffffff;stroke-width:0.277;stroke-linecap:square;stroke-linejoin:miter;stroke-dasharray:none;stroke-opacity:1;paint-order:markers stroke fill"
         d="m 98.859107,289.98 h -1.020092 v 2.19712 h -0.836998 v 2.32789 H 96.2958 v 2.22328 h -0.523123"
         id="path8-6-9" />
      <path
         style="fill:none;fill-opacity:1;stroke:#ffffff;stroke-width:0.277;stroke-linecap:square;stroke-linejoin:miter;stroke-dasharray:none;stroke-opacity:1;paint-order:markers stroke fill"
         d="m 98.911421,276.46172 h -1.020092 v 2.19712 h -0.836998 v 2.32789 h -0.706217 v 2.22328 h -0.523123"
         id="path8-6-0-2" />
      <path
         style="fill:none;fill-opacity:1;stroke:#ffffff;stroke-width:0.277;stroke-linecap:square;stroke-linejoin:miter;stroke-dasharray:none;stroke-opacity:1;paint-order:markers stroke fill"
         d="M 94.574508,283.21098 H 95.5946 v 2.19712 h 0.836998 v 2.32789 h 0.706217 v 2.22328 h 0.523123"
         id="path8-6-3-2" />
      <path
         style="fill:#000000;fill-opacity:1;stroke:none;stroke-width:0.278895;stroke-linecap:square;stroke-linejoin:miter;stroke-dasharray:none;stroke-opacity:1;paint-order:markers stroke fill"
         id="path9-8-8"
         d="m -14.025853,73.173189 -23.645159,0 11.82258,-20.477308 z"
         transform="matrix(0.10360393,-0.10360393,0.37940537,0.37940537,71.474474,236.03353)" />
      <path
         style="fill:#000000;fill-opacity:1;stroke:none;stroke-width:0.0781981;stroke-linecap:square;stroke-linejoin:miter;stroke-dasharray:none;stroke-opacity:1;paint-order:markers stroke fill"
         id="path10-0-9"
         d="m 87.415014,257.49269 a 1.2720666,1.2720666 0 0 1 1.758596,-0.37899 1.2720666,1.2720666 0 0 1 0.379,1.75859 1.2720666,1.2720666 0 0 1 -1.758595,0.37901 1.2720666,1.2720666 0 0 1 -0.379007,-1.7586 l 1.068802,0.6898 z" />
      <text
         xml:space="preserve"
         style="font-style:normal;font-variant:normal;font-weight:normal;font-stretch:normal;font-size:34.4676px;line-height:1;font-family:'Noto Sans Arabic UI';-inkscape-font-specification:'Noto Sans Arabic UI';text-align:start;letter-spacing:-3.61192px;writing-mode:lr-tb;direction:ltr;text-anchor:start;fill:#000000;fill-opacity:1;stroke:#000000;stroke-width:1.05038;stroke-linecap:square;stroke-linejoin:miter;stroke-dasharray:none;stroke-opacity:1;paint-order:markers stroke fill"
         x="86.247528"
         y="372.20328"
         id="text14-2-7"
         transform="scale(1.199396,0.83375299)"><tspan
           id="tspan14-1-3"
           style="letter-spacing:-3.61192px;stroke:#000000;stroke-width:1.05038;stroke-dasharray:none;stroke-opacity:1"
           x="86.247528"
           y="372.20328">ower</tspan></text>
    </g>
  </g>
</svg>
